# xmcd
#
# Track frame offsets:
#	182
#	14057
#	30075
#	41477
#	54122
#	66757
#	78937
#	91545
#	104265
#	118022
#	129347
#	139777
#	152270
#	164462
#	175665
#	188452
#
# Disc length: 2648
#
# Revision: 1
# Processed by: cddbd v1.5.1PL0 Copyright (c) Steve Scherf et al.
# Submitted via: CDex 1.50beta10
# Normalized: r0:TDELIM( - )
#
DISCID=b10a5610
DTITLE=Various Artist - I've got the BLUES
DYEAR=1900
DGENRE=Blues
TTITLE0=MUDDY WATERS - Hoochie Coochie Man
TTITLE1=HOWLIN' WOLF - I Ain't Superstitious
TTITLE2=JOHN LEE HOOKER - Boom Boom
TTITLE3=BO DIDDLEY - Road Runner
TTITLE4=JIMMY REED - Big Boss Man
TTITLE5=CHUCK BERRY - Around And Around
TTITLE6=ETTA JAMES and RICHARD BERRY - Dance With Me Henry
TTITLE7=FONTELLA BASS - Rescue Me
TTITLE8=MUDDY WATERS - Baby Please Don't Go
TTITLE9=HOWLIN' WOLF - The Red Rooster
TTITLE10=JOHN LEE HOOKER - Dimples
TTITLE11=BO DIDDLEY - I'm A Man
TTITLE12=JIMMY REED - Bright Lights, Big City
TTITLE13=CHUCK BERRY - Thirty Days
TTITLE14=ETTA JAMES and HARVEY FUQUA - Spoonful
TTITLE15=DALE HAWKINS - Suzy Q
EXTD=
EXTT0=
EXTT1=
EXTT2=
EXTT3=
EXTT4=
EXTT5=
EXTT6=
EXTT7=
EXTT8=
EXTT9=
EXTT10=
EXTT11=
EXTT12=
EXTT13=
EXTT14=
EXTT15=
PLAYORDER=
